Coordinates
version=1
nRows=15
nColumns=42
inDegrees=yes

Units are S.I. units (second, meters, Newtons, ...)
If the header above contains a line with 'inDegrees', this indicates whether rotational values are in degrees (yes) or radians (no).

endheader
time	pelvis_tilt	pelvis_list	pelvis_rotation	pelvis_tx	pelvis_ty	pelvis_tz	hip_flexion_r	hip_adduction_r	hip_rotation_r	knee_angle_r	knee_adduction_r	knee_angle_r_beta	ankle_angle_r	subtalar_angle_r	mtp_angle_r	hip_flexion_l	hip_adduction_l	hip_rotation_l	knee_angle_l	knee_adduction_l	knee_angle_l_beta	ankle_angle_l	subtalar_angle_l	mtp_angle_l	lumbar_extension	lumbar_bending	lumbar_rotation	arm_flex_r	arm_add_r	arm_rot_r	elbow_flex_r	pro_sup_r	wrist_flex_r	wrist_dev_r	arm_flex_l	arm_add_l	arm_rot_l	elbow_flex_l	pro_sup_l	wrist_flex_l	wrist_dev_l
      0.77000000	      5.67883036	     -1.63883911	    -11.18827718	     -0.83317948	      0.94699248	      0.28913599	    -22.90642677	      1.08741265	     -0.03751349	      2.80276682	      2.23527455	      0.04891751	     26.09938977	     16.02512779	     -7.68225292	     17.03087919	     -6.26781997	    -26.94858122	      1.27361556	      3.75499599	      0.02222878	      9.74222158	     20.96929198	     -7.68225292	    -16.45669680	      1.52623073	      8.07686050	      5.96889088	    -23.52970538	     19.36161964	     47.62218970	     90.00000001	      0.00000000	      0.00000000	    -19.61567168	     -7.42167741	      2.97081629	     38.72374243	     90.00000001	      0.00000000	      0.00000000
      0.78000000	      5.70034696	     -1.72241678	    -11.59114351	     -0.81833355	      0.94385472	      0.28961005	    -23.79856192	      0.83740823	      0.49456656	      3.08108232	      2.25766946	      0.05377503	     26.33695219	     15.58926388	     -7.67147777	     17.57663223	     -6.62475479	    -29.13598970	      1.28633575	      4.11663303	      0.02245079	     10.26495228	     24.49654623	     -7.67147777	    -16.39834537	      1.51791525	      8.41333879	      6.14207734	    -23.74090332	     19.67659658	     47.55726821	     90.00000001	      0.00000000	      0.00000000	    -20.05463764	     -7.11582060	      2.24354314	     38.78730940	     90.00000001	      0.00000000	      0.00000000
      0.79000000	      5.57908811	     -1.79325794	    -11.71080291	     -0.80351673	      0.94071313	      0.28979808	    -24.45354808	      0.71186889	      0.50962740	      3.53506386	      2.23363593	      0.06169850	     26.36184470	     15.55138014	     -7.67065328	     18.23759091	     -6.74177380	    -29.03693115	      1.37934959	      4.15946459	      0.02407419	     10.22148706	     24.45083174	     -7.67065328	    -16.19755637	      1.57315810	      8.54470155	      6.14576913	    -23.84826519	     19.62098627	     47.50477897	     90.00000001	      0.00000000	      0.00000000	    -20.39443273	     -7.06827217	      2.22841832	     38.77404274	     90.00000001	      0.00000000	      0.00000000
      0.80000000	      5.88541459	     -1.56417729	    -12.33356057	     -0.78840015	      0.93841407	      0.29028529	    -25.49953056	     -0.11983503	      1.06669745	      3.97970559	      2.37032048	      0.06945897	     26.76596923	     15.44686581	     -7.66659860	     18.08270233	     -6.48379007	    -28.99668770	      1.26374414	      4.10550240	      0.02205650	     10.00780674	     24.73767251	     -7.66659860	    -16.39551891	      1.11889089	      9.00147941	      6.24261043	    -23.86241609	     19.58807890	     47.21129944	     90.00000001	      0.00000000	      0.00000000	    -20.77941740	     -6.92165945	      1.75693627	     39.16747648	     90.00000001	      0.00000000	      0.00000000
      0.81000000	      5.73908681	     -1.54228355	    -12.61062728	     -0.77309056	      0.93578751	      0.29053840	    -26.02070561	     -0.44027552	      1.16431566	      4.63054334	      2.32250051	      0.08081823	     26.65390541	     15.42582152	     -7.66560199	     18.60727391	     -6.54650099	    -28.50252336	      1.94141146	      4.01398522	      0.03388402	      9.91093097	     24.63161415	     -7.66560199	    -16.11535359	      1.06227172	      9.18431906	      6.10454537	    -23.90333623	     19.56900798	     47.13052063	     90.00000001	      0.00000000	      0.00000000	    -21.06646874	     -6.88093897	      1.72507560	     39.13879965	     90.00000001	      0.00000000	      0.00000000
      0.82000000	      6.32088145	     -0.79328667	    -13.22703010	     -0.75731793	      0.93434137	      0.29053481	    -27.19514826	     -2.08495163	      1.33979434	      5.19449227	      2.79616624	      0.09066099	     26.45758062	     15.40067526	     -7.66152676	     18.21455352	     -5.50357229	    -27.85654697	      2.49128058	      3.53254294	      0.04348105	      9.70796041	     23.25580310	     -7.66152676	    -16.44609137	     -0.00627191	      9.50466708	      6.06069027	    -23.77418780	     19.34473914	     46.62237335	     90.00000001	      0.00000000	      0.00000000	    -21.22872001	     -6.80252421	      1.19890597	     39.25560732	     90.00000001	      0.00000000	      0.00000000
      0.83000000	      6.47143471	     -0.33611386	    -13.50451244	     -0.74164375	      0.93273361	      0.29035690	    -27.79140227	     -3.08426405	      1.06208410	      6.13551489	      3.00996902	      0.10708494	     26.10963459	     15.75997765	     -7.64518101	     18.12280215	     -4.72305208	    -25.25724740	      2.96371353	      3.16699054	      0.05172656	      8.56383440	     19.63978629	     -7.64518101	    -16.40395006	     -0.60213297	      9.58266932	      5.81281434	    -23.69109619	     19.16671508	     46.41691184	     90.00000001	      0.00000000	      0.00000000	    -21.30643211	     -6.79655786	      0.92673146	     39.19117286	     90.00000001	      0.00000000	      0.00000000
      0.84000000	      6.52655296	      0.11731687	    -13.78604909	     -0.72571959	      0.93134111	      0.29026320	    -28.24529749	     -4.05209730	      0.97532904	      7.14815025	      3.21022979	      0.12475876	     25.40818156	     15.71158186	     -7.64217252	     18.53566529	     -4.27628651	    -24.70831447	      4.79802156	      2.94276594	      0.08374127	      8.23726185	     18.64841682	     -7.64217252	    -16.22803085	     -1.18405470	      9.67655438	      5.49457939	    -23.54225398	     18.97222108	     46.03155330	     90.00000001	      0.00000000	      0.00000000	    -21.33481010	     -6.87179265	      0.85192300	     39.06361156	     90.00000001	      0.00000000	      0.00000000
      0.85000000	      6.60584284	      0.60282892	    -13.98915164	     -0.70966986	      0.93038204	      0.28993126	    -28.59824261	     -5.06372455	      0.82399978	      8.38530489	      3.47854975	      0.14635118	     24.46709427	     15.67976276	     -7.63965328	     18.93124057	     -3.75412896	    -24.11356049	      6.85492676	      2.70268352	      0.11964104	      7.73037170	     17.55715660	     -7.63965328	    -16.08457995	     -1.78445715	      9.68394208	      5.11078938	    -23.35900966	     18.70989065	     45.63612404	     90.00000001	      0.00000000	      0.00000000	    -21.26100127	     -6.95150207	      0.78373738	     38.85622272	     90.00000001	      0.00000000	      0.00000000
      0.86000000	      6.66552926	      1.11855004	    -14.11625722	     -0.69343078	      0.92981479	      0.28951936	    -28.79502440	     -6.05389953	      0.57135125	      9.86718331	      3.71622274	      0.17221484	     23.30229841	     15.63735935	     -7.63720786	     19.32274672	     -3.20841803	    -23.51187428	      9.04494282	      2.54024807	      0.15786403	      7.11927673	     16.44710273	     -7.63720786	    -15.90764220	     -2.40256144	      9.61934871	      4.64134845	    -23.11654375	     18.39095130	     45.19740289	     90.00000001	      0.00000000	      0.00000000	    -21.10666522	     -7.06706608	      0.73268716	     38.58981676	     90.00000001	      0.00000000	      0.00000000
      0.87000000	      6.75960128	      1.61010360	    -14.14642522	     -0.67708826	      0.92975001	      0.28903447	    -28.89892998	     -6.98442635	      0.33476951	     11.59469420	      3.96468443	      0.20236559	     21.89896758	     15.56041168	     -7.63503195	     19.61617120	     -2.65733912	    -22.86967611	     11.26955529	      2.42830918	      0.19669084	      6.48827396	     15.46184511	     -7.63503195	    -15.79329207	     -3.00010716	      9.47199659	      4.10136117	    -22.81284303	     18.06914483	     44.73340365	     90.00000001	      0.00000000	      0.00000000	    -20.83644814	     -7.20228653	      0.71262207	     38.28567055	     90.00000001	      0.00000000	      0.00000000
      0.88000000	      6.93139627	      2.08806133	    -14.06063431	     -0.66054394	      0.93022726	      0.28858813	    -28.96476548	     -7.82794309	      0.06010880	     13.54634063	      4.16171941	      0.23642825	     20.24214859	     15.38449794	     -7.63307606	     19.74239109	     -2.06881840	    -22.28812213	     13.43924341	      2.34560601	      0.23455905	      5.90196736	     14.56075668	     -7.63307606	    -15.76698167	     -3.61056078	      9.23913143	      3.49032497	    -22.47903730	     17.72989823	     44.23667190	     90.00000001	      0.00000000	      0.00000000	    -20.48659684	     -7.46021154	      0.68870980	     37.94593793	     90.00000001	      0.00000000	      0.00000000
      0.89000000	      7.15552980	      2.62792120	    -13.90765504	     -0.64379614	      0.93114943	      0.28773072	    -28.85050219	     -8.69133443	     -0.54599250	     15.90782016	      4.17689441	      0.27764384	     18.22820981	     15.07771115	     -7.63033744	     19.76195274	     -1.35266909	    -21.74615478	     15.58243822	      2.28264463	      0.27196485	      5.30871915	     13.54341862	     -7.63033744	    -15.78738626	     -4.22826632	      8.86943479	      2.87286123	    -22.11210474	     17.17605279	     43.70723094	     90.00000001	      0.00000000	      0.00000000	    -20.11826188	     -7.66354544	      0.72066579	     37.57579592	     90.00000001	      0.00000000	      0.00000000
      0.90000000	      7.49562539	      3.06872862	    -13.68873194	     -0.62709190	      0.93270280	      0.28697845	    -28.70612870	     -9.45975645	     -0.88266567	     18.51648908	      4.29837909	      0.32317370	     16.10883668	     14.62011756	     -7.62849605	     19.44768345	     -0.65045030	    -21.09483253	     17.39077953	      2.25616124	      0.30352636	      4.97350164	     12.82230898	     -7.62849605	    -15.98723818	     -4.78837464	      8.46464755	      2.21572387	    -21.74052745	     16.78609503	     43.17811159	     90.00000001	      0.00000000	      0.00000000	    -19.61928951	     -7.92071027	      0.75415457	     37.23624094	     90.00000001	      0.00000000	      0.00000000
      0.91000000	      7.90166211	      3.46183508	    -13.39084045	     -0.61043034	      0.93474803	      0.28613177	    -28.43333898	    -10.13169198	     -1.20266625	     21.42518867	      4.34986944	      0.37394009	     13.90827251	     13.95944281	     -7.62667426	     18.90780745	      0.06389746	    -20.38904925	     18.96416452	      2.28558193	      0.33098711	      4.83802932	     12.19817484	     -7.62667426	    -16.30975494	     -5.28555551	      7.96523465	      1.55590022	    -21.35785739	     16.43637009	     42.65291680	     90.00000001	      0.00000000	      0.00000000	    -19.06376693	     -8.20161945	      0.78921595	     36.93696797	     90.00000001	      0.00000000	      0.00000000
